<?xml version="1.0" encoding="utf-8"?>
<!-- Generator: Adobe Illustrator 25.0.0, SVG Export Plug-In . SVG Version: 6.00 Build 0)  -->
<svg version="1.1" id="Layer_1" xmlns="http://www.w3.org/2000/svg" xmlns:xlink="http://www.w3.org/1999/xlink" x="0px" y="0px"
	 viewBox="0 0 512 512" enable-background="new 0 0 512 512" xml:space="preserve">
<g>
	<path fill-rule="evenodd" clip-rule="evenodd" d="M481.189,316.857C460.066,427.505,362.494,512,244.804,512
		C112.026,512,4.396,403.363,4.396,270.585c0-117.69,85.501-216.267,198.161-236.385c4.024-1.006,8.047,0,12.071,3.018
		c3.018,3.018,5.029,7.041,5.029,12.071v159.937c0,48.283,41.242,89.525,89.525,89.525h156.919c5.029,0,9.053,2.012,12.071,6.035
		C481.189,307.804,482.195,311.827,481.189,316.857L481.189,316.857z"/>
	<path fill-rule="evenodd" clip-rule="evenodd" d="M306.164,0c104.613,16.094,186.09,99.584,201.179,203.191
		c1.006,5.029-1.006,9.053-4.024,12.071c-3.018,4.024-6.035,5.029-11.065,5.029H333.323c-23.136,0-44.259-21.124-44.259-44.259
		V15.088c0-4.024,2.012-8.047,5.029-11.065C298.117,1.006,302.14,0,306.164,0L306.164,0z"/>
</g>
</svg>
