<?xml version="1.0" standalone="yes"?>
<svg xmlns="http://www.w3.org/2000/svg" width="119" height="119">
<path style="fill:#fffdfc; stroke:none;" d="M0 0L0 53L1 53C2.16213 26.3445 28.4491 1.21982 55 1L37 0L0 0z"/>
<path style="fill:#f68527; stroke:none;" d="M0 62C7.85646 57.6217 16.8393 51.9736 23.5015 45.9097C32.8683 37.3842 33.9281 29.22 49 31L49 30L46 30L46 29C57.6323 24.5898 72.0527 13.6403 81 5C55.7659 -8.24371 22.2409 5.74932 8.4537 29C2.30877 39.3628 0.850888 50.2526 0 62z"/>
<path style="fill:#d22063; stroke:none;" d="M64 0L65 1L64 0z"/>
<path style="fill:#fffdfc; stroke:none;" d="M65 0L65 1C90.2051 1.52303 115.791 24.6964 118 50L119 50L119 0L65 0z"/>
<path style="fill:#010101; stroke:none;" d="M47 1L48 2L47 1z"/>
<path style="fill:#f14a39; stroke:none;" d="M71 1L72 2L71 1M43 2L44 3L43 2M75 2L76 3L75 2M78 3L79 4L78 3M80 4L72 11.3333L46 29L46 30C62.4799 34.1655 64.2982 50.7509 70 64C74.0032 62.0085 80.7171 58.7364 82.9329 54.6744C84.9515 50.9738 82.1608 42.6219 77.9452 41.446C75.1784 40.6742 71.6007 43.1808 69 44C69.2194 34.6698 76.4843 25.8131 85.9599 32.6528C90.5621 35.9748 92.429 41.1973 95 46L113 35C108.79 20.4142 94.3315 8.12865 80 4z"/>
<path style="fill:#010101; stroke:none;" d="M98 14L99 15L98 14z"/>
<path style="fill:#d22063; stroke:none;" d="M99 15L100 16L99 15M104 20L105 21L104 20z"/>
<path style="fill:#010101; stroke:none;" d="M108 25L109 26L108 25z"/>
<path style="fill:#fffdfc; stroke:none;" d="M50 76C47.3698 76.6654 43.801 79.096 41.1049 77.9676C32.2483 74.2606 32.2481 47.7361 41.0147 43.9213C45.7182 41.8745 48.2604 50.9448 49.2546 54C53.0832 65.7647 55.8054 82.9624 69.0008 88.0054C98.6931 99.3532 104.166 47.1321 86.9568 33.419C78.385 26.5884 67.3443 33.3679 70 44C72.2525 43.0809 75.3704 40.7671 77.8951 41.4568C87.3607 44.0426 86.2878 71.1722 78.8958 75.3642C73.7377 78.2894 71.4324 69.2808 70.3333 66C66.2986 53.9563 63.4398 36.6925 50 31.5633C21.2492 20.5905 17.5398 67.1401 29.2238 82.9066C37.2261 93.705 49.7047 88.5627 50 76z"/>
<path style="fill:#f68527; stroke:none;" d="M75.6667 30.3333L76.3333 30.6667L75.6667 30.3333M81.6667 30.3333L82.3333 30.6667L81.6667 30.3333z"/>
<path style="fill:#d22063; stroke:none;" d="M111 30L112 31L111 30z"/>
<path style="fill:#f68527; stroke:none;" d="M50.6667 31.3333L51.3333 31.6667L50.6667 31.3333M73 31L74 32L73 31M84 31L85 32L84 31M52 32L53 33L52 32M72 32L73 33L72 32M86 32L87 33L86 32z"/>
<path style="fill:#d22063; stroke:none;" d="M112 32L113 33L112 32z"/>
<path style="fill:#f68527; stroke:none;" d="M54 33L55 34L54 33M71 33L72 34L71 33M87 33L88 34L87 33M55 34L56 35L55 34M88 34L89 35L88 34z"/>
<path style="fill:#d22063; stroke:none;" d="M113 34L95 46C97.0292 56.7702 98.751 68.9601 92.9144 79C82.842 96.3259 64.3639 89.4696 56 75C50.3058 77.3788 50.8503 82.7577 46.7755 86.7716C42.6789 90.8068 38.7452 88.4588 34 89.9329C27.5282 91.9432 22.1329 101.017 15 99C46.685 143.856 118.92 110.989 119 61C119.014 52.0812 118.556 41.4271 113 34z"/>
<path style="fill:#f68527; stroke:none;" d="M56 35L57 36L56 35M70 35L71 36L70 35M89 35L90 36L89 35M57 36L58 37L57 36z"/>
<path style="fill:#f14a39; stroke:none;" d="M4 37L5 38L4 37z"/>
<path style="fill:#f68527; stroke:none;" d="M58 37L59 38L58 37M69.3333 37.6667L69.6667 38.3333L69.3333 37.6667M59 38L60 39L59 38M91 38L92 39L91 38M60 40L61 41L60 40M76 40L77 41L76 40M78 40L79 41L78 40M92 40L93 41L92 40M61 41L62 42L61 41M74 41L75 42L74 41M79 41L80 42L79 41M41 42L41 43L45 44L45 43L41 42M73 42L74 43L73 42M80 42L81 43L80 42z"/>
<path style="fill:#f14a39; stroke:none;" d="M56 75L51.3333 61C49.9449 56.8346 47.8465 43.6358 42.061 43.6358C36.3531 43.6358 36.0178 54.1793 35.591 58C33.7513 74.4721 40.6406 81.2438 56 75z"/>
<path style="fill:#f68527; stroke:none;" d="M62 43L63 44L62 43M69 43L70 44L69 43M93 43L94 44L93 43M38 45L39 46L38 45M63 45L64 46L63 45M94.3333 45.6667L94.6667 46.3333L94.3333 45.6667z"/>
<path style="fill:#f14a39; stroke:none;" d="M35 88C22.5584 79.0452 20.6596 60.0306 24 46C17.7906 48.3885 2.95741 56.5411 0.642747 63.0934C-2.30364 71.4339 7.66656 98.1346 17.0903 99.723C22.4114 100.62 31.8736 91.7828 35 88z"/>
<path style="fill:#f68527; stroke:none;" d="M37.3333 46.6667L37.6667 47.3333L37.3333 46.6667M46 46L47 47L46 46M82 46L83 47L82 46M23 47L23 50L24 50L23 47M64 48L65 49L64 48z"/>
<path style="fill:#f14a39; stroke:none;" d="M95 48L96 49L95 48z"/>
<path style="fill:#f68527; stroke:none;" d="M36.3333 49.6667L36.6667 50.3333L36.3333 49.6667M47 49L48 50L47 49M83.3333 49.6667L83.6667 50.3333L83.3333 49.6667M95.3333 49.6667L95.6667 50.3333L95.3333 49.6667M65.3333 50.6667L65.6667 51.3333L65.3333 50.6667M48.3333 51.6667L48.6667 52.3333L48.3333 51.6667z"/>
<path style="fill:#f14a39; stroke:none;" d="M0.333333 53.6667L0.666667 54.3333L0.333333 53.6667z"/>
<path style="fill:#f68527; stroke:none;" d="M35 53L35 59L36 59L35 53M66.3333 53.6667L66.6667 54.3333L66.3333 53.6667M49.3333 54.6667L49.6667 55.3333L49.3333 54.6667z"/>
<path style="fill:#f14a39; stroke:none;" d="M96 54L96 57L97 57L96 54z"/>
<path style="fill:#d22063; stroke:none;" d="M83 55L70 64C71.1278 67.4601 72.6161 75.454 77.061 76.0787C84.3237 77.0994 84.7147 59.0862 83 55z"/>
<path style="fill:#f68527; stroke:none;" d="M67.3333 56.6667L67.6667 57.3333L67.3333 56.6667M96 57L96 64L97 64L96 57M50 58L51 59L50 58z"/>
<path style="fill:#f14a39; stroke:none;" d="M0 60L1 61L0 60z"/>
<path style="fill:#f68527; stroke:none;" d="M68 60L69 61L68 60M51 61L52 62L51 61M35 63L35 68L36 68L35 63M69 63L70 64L69 63M52 64L53 65L52 64z"/>
<path style="fill:#f14a39; stroke:none;" d="M96 64L96 68L97 68L96 64M70 65L71 66L70 65M83.3333 65.6667L83.6667 66.3333L83.3333 65.6667z"/>
<path style="fill:#f68527; stroke:none;" d="M23 66L23 69L24 69L23 66M70 66L71 67L70 66z"/>
<path style="fill:#fffdfc; stroke:none;" d="M0 67L0 119L49 119L49 118C31.0099 116.429 14.0807 101.611 6.27006 86C3.21475 79.8933 2.71708 73.0504 0 67z"/>
<path style="fill:#f68527; stroke:none;" d="M53 67L54 68L53 67M83.3333 67.6667L83.6667 68.3333L83.3333 67.6667z"/>
<path style="fill:#f14a39; stroke:none;" d="M71 68L72 69L71 68z"/>
<path style="fill:#f68527; stroke:none;" d="M71 69L72 70L71 69z"/>
<path style="fill:#010101; stroke:none;" d="M118 69L119 70L118 69z"/>
<path style="fill:#f68527; stroke:none;" d="M54 70L55 71L54 70z"/>
<path style="fill:#f14a39; stroke:none;" d="M82 70L83 71L82 70z"/>
<path style="fill:#fffdfc; stroke:none;" d="M118 70C114.9 93.0039 93.6888 115.932 70 118L70 119L119 119C119 105.212 123.309 82.652 118 70z"/>
<path style="fill:#f68527; stroke:none;" d="M36.3333 71.6667L36.6667 72.3333L36.3333 71.6667z"/>
<path style="fill:#f14a39; stroke:none;" d="M72 71L73 72L72 71z"/>
<path style="fill:#f68527; stroke:none;" d="M82 71L83 72L82 71M95 71L96 72L95 71M24 72L25 73L24 72M72 72L73 73L72 72z"/>
<path style="fill:#f14a39; stroke:none;" d="M95 72L96 73L95 72z"/>
<path style="fill:#f68527; stroke:none;" d="M55 73L56 74L55 73z"/>
<path style="fill:#f14a39; stroke:none;" d="M73 73L74 74L73 73z"/>
<path style="fill:#f68527; stroke:none;" d="M81 73L82 74L81 73M37 74L38 75L37 74M73 74L74 75L73 74M25 75L26 76L25 75M56 75L57 76L56 75z"/>
<path style="fill:#f14a39; stroke:none;" d="M74 75L75 76L74 75z"/>
<path style="fill:#f68527; stroke:none;" d="M94 75L95 76L94 75M38 76L39 77L38 76z"/>
<path style="fill:#f14a39; stroke:none;" d="M56 76L57 77L56 76M75 76L76 77L75 76z"/>
<path style="fill:#f68527; stroke:none;" d="M50.3333 77.6667L50.6667 78.3333L50.3333 77.6667z"/>
<path style="fill:#f14a39; stroke:none;" d="M57 77L58 78L57 77z"/>
<path style="fill:#f68527; stroke:none;" d="M76.6667 77.3333L77.3333 77.6667L76.6667 77.3333M26 78L27 79L26 78M44 78L45 79L44 78M58 78L59 79L58 78z"/>
<path style="fill:#f14a39; stroke:none;" d="M93 78L94 79L93 78z"/>
<path style="fill:#f68527; stroke:none;" d="M41.6667 79.3333L42.3333 79.6667L41.6667 79.3333z"/>
<path style="fill:#f14a39; stroke:none;" d="M50.3333 79.6667L50.6667 80.3333L50.3333 79.6667M58 79L59 80L58 79z"/>
<path style="fill:#f68527; stroke:none;" d="M27 80L28 81L27 80z"/>
<path style="fill:#f14a39; stroke:none;" d="M59 80L60 81L59 80M92 80L93 81L92 80z"/>
<path style="fill:#f68527; stroke:none;" d="M60 81L61 82L60 81M91 81L92 82L91 81z"/>
<path style="fill:#010101; stroke:none;" d="M4 82L5 83L4 82z"/>
<path style="fill:#f68527; stroke:none;" d="M49 82L50 83L49 82M61 82L62 83L61 82M29 83L30 84L29 83z"/>
<path style="fill:#f14a39; stroke:none;" d="M49 83L50 84L49 83z"/>
<path style="fill:#f68527; stroke:none;" d="M30 84L31 85L30 84M48 84L49 85L48 84z"/>
<path style="fill:#f14a39; stroke:none;" d="M48 85L49 86L48 85z"/>
<path style="fill:#f68527; stroke:none;" d="M64 85L65 86L64 85M32 86L33 87L32 86z"/>
<path style="fill:#f14a39; stroke:none;" d="M47 86L48 87L47 86M65 86L66 87L65 86z"/>
<path style="fill:#f68527; stroke:none;" d="M86 86L87 87L86 86M33 87L34 88L33 87M46 87L47 88L46 87M67 87L68 88L67 87M84 87L85 88L84 87M35 88L36 89L35 88M44 88L45 89L44 88z"/>
<path style="fill:#f14a39; stroke:none;" d="M45 88L46 89L45 88z"/>
<path style="fill:#f68527; stroke:none;" d="M69 88L70 89L69 88M82 88L83 89L82 88z"/>
<path style="fill:#f14a39; stroke:none;" d="M37.6667 89.3333L38.3333 89.6667L37.6667 89.3333z"/>
<path style="fill:#f68527; stroke:none;" d="M39 89L39 90L42 90L39 89z"/>
<path style="fill:#f14a39; stroke:none;" d="M42.6667 89.3333L43.3333 89.6667L42.6667 89.3333M72.6667 89.3333L73.3333 89.6667L72.6667 89.3333z"/>
<path style="fill:#f68527; stroke:none;" d="M74 89L74 90L77 90L74 89z"/>
<path style="fill:#f14a39; stroke:none;" d="M77 89L77 90L80 90L77 89z"/>
<path style="fill:#d22063; stroke:none;" d="M8 90L9 91L8 90M10 93L11 94L10 93M13 97L14 98L13 97z"/>
</svg>
