<?xml version="1.0" standalone="no"?>
<!DOCTYPE svg PUBLIC "-//W3C//DTD SVG 20010904//EN"
 "http://www.w3.org/TR/2001/REC-SVG-20010904/DTD/svg10.dtd">
<svg version="1.0" xmlns="http://www.w3.org/2000/svg"
 width="119.000000pt" height="119.000000pt" viewBox="0 0 119.000000 119.000000"
 preserveAspectRatio="xMidYMid meet">
<metadata>
Created by potrace 1.16, written by Peter Selinger 2001-2019
</metadata>
<g transform="translate(0.000000,119.000000) scale(0.100000,-0.100000)"
fill="#000000" stroke="none">
<path d="M880 1082 c0 -14 2 -15 10 -2 9 13 10 13 10 0 0 -13 1 -13 10 0 7 11
10 7 10 -17 0 -32 -2 -33 -40 -33 -33 0 -40 -3 -40 -20 0 -11 -7 -20 -15 -20
-8 0 -15 9 -15 20 0 15 -7 20 -25 20 -18 0 -25 -5 -25 -20 0 -13 -7 -20 -20
-20 -13 0 -20 -7 -20 -19 0 -12 -8 -21 -22 -24 l-23 -4 23 -2 c12 0 22 -8 22
-16 0 -9 6 -12 18 -9 14 5 15 4 2 -5 -8 -6 -13 -11 -10 -12 3 0 16 -2 29 -5
13 -2 31 1 39 8 13 11 14 11 8 0 -5 -9 -3 -13 5 -11 8 1 19 1 24 0 12 -1 79
-62 82 -74 1 -4 12 -33 24 -65 32 -80 33 -264 2 -333 -66 -146 -227 -171 -335
-51 -20 22 -38 39 -40 37 -2 -2 -4 4 -5 13 -2 23 -70 212 -74 207 -2 -2 -5 11
-6 28 -1 17 -7 33 -12 36 -5 4 -13 19 -16 34 -10 39 -32 45 -58 16 -12 -12
-14 -17 -5 -10 13 10 21 10 40 0 l23 -12 -23 -10 c-12 -6 -22 -16 -22 -24 0
-7 -4 -13 -8 -13 -5 0 -17 -18 -27 -40 -33 -73 -1 -234 44 -227 9 2 28 11 43
21 15 10 31 15 36 12 13 -8 22 -46 12 -46 -5 0 -11 -13 -15 -29 -10 -46 -40
-66 -96 -65 -36 0 -55 6 -72 22 -13 12 -29 22 -35 22 -7 0 -11 3 -10 8 4 12
-45 122 -54 122 -4 0 -8 6 -8 13 0 30 -26 67 -47 67 -16 0 -20 5 -16 20 4 15
0 20 -16 20 -18 0 -21 -6 -21 -40 0 -33 -3 -40 -20 -40 -12 0 -20 -7 -20 -17
0 -10 -13 -28 -29 -41 -29 -23 -29 -24 -16 -61 23 -67 55 -122 67 -115 6 4 9
1 6 -7 -6 -17 2 -28 77 -103 108 -110 247 -166 410 -166 176 0 297 50 420 174
88 88 131 162 160 276 23 87 16 250 -14 335 -26 73 -84 171 -100 168 -6 -2
-11 5 -11 15 0 25 -66 88 -73 70 -4 -11 -6 -11 -6 0 -1 15 -31 48 -31 35 0 -4
-4 -2 -9 6 -14 22 -51 24 -51 3z m80 -42 c0 -5 -5 -10 -11 -10 -5 0 -7 5 -4
10 3 6 8 10 11 10 2 0 4 -4 4 -10z m-160 -55 c0 -30 -3 -35 -22 -34 -17 1 -19
2 -5 6 11 3 17 14 17 34 0 16 2 29 5 29 3 0 5 -16 5 -35z m220 14 c0 -6 -4 -7
-10 -4 -5 3 -10 11 -10 16 0 6 5 7 10 4 6 -3 10 -11 10 -16z m-20 -29 c0 -11
-7 -20 -15 -20 -27 0 -18 30 13 39 1 1 2 -8 2 -19z m-540 -290 c0 -5 -4 -10
-10 -10 -5 0 -10 5 -10 10 0 6 5 10 10 10 6 0 10 -4 10 -10z m-322 -207 c-10
-2 -26 -2 -35 0 -10 3 -2 5 17 5 19 0 27 -2 18 -5z m-55 -69 c3 -3 1 -17 -5
-30 -13 -28 -29 -14 -21 17 5 19 15 24 26 13z"/>
<path d="M760 1055 c0 -8 7 -15 15 -15 8 0 15 7 15 15 0 8 -7 15 -15 15 -8 0
-15 -7 -15 -15z"/>
<path d="M688 1023 c7 -3 16 -2 19 1 4 3 -2 6 -13 5 -11 0 -14 -3 -6 -6z"/>
<path d="M600 969 c0 -14 5 -19 17 -17 26 5 29 38 4 38 -15 0 -21 -6 -21 -21z"/>
<path d="M600 891 c0 -19 23 -35 34 -24 14 15 5 43 -14 43 -13 0 -20 -7 -20
-19z"/>
<path d="M680 890 c0 -13 -7 -20 -20 -20 -13 0 -20 -7 -20 -20 0 -13 -7 -20
-20 -20 -11 0 -20 5 -20 12 0 6 -2 9 -5 6 -3 -3 3 -24 14 -47 11 -26 21 -38
24 -29 3 7 6 -1 6 -19 1 -38 20 -85 32 -77 4 2 6 -5 4 -16 -4 -23 49 -196 70
-223 20 -27 54 -13 73 31 38 86 12 313 -34 295 -12 -4 -15 -3 -10 5 4 7 1 12
-7 12 -8 0 -17 -7 -21 -15 -8 -23 -57 -19 -63 5 -3 11 -12 20 -19 20 -8 0 -14
4 -14 9 0 5 9 7 21 4 18 -5 20 -2 17 28 -2 28 0 34 17 34 18 0 21 6 17 35 -1
6 -11 10 -22 10 -13 0 -20 -7 -20 -20z"/>
<path d="M367 681 c-4 -17 -3 -21 5 -13 5 5 8 16 6 23 -3 8 -7 3 -11 -10z"/>
<path d="M120 655 c0 -8 7 -15 15 -15 8 0 15 7 15 15 0 8 -7 15 -15 15 -8 0
-15 -7 -15 -15z"/>
<path d="M180 649 c0 -11 5 -17 10 -14 6 3 10 13 10 21 0 8 -4 14 -10 14 -5 0
-10 -9 -10 -21z"/>
<path d="M210 640 c0 -5 5 -10 11 -10 5 0 7 5 4 10 -3 6 -8 10 -11 10 -2 0 -4
-4 -4 -10z"/>
<path d="M37 512 c1 -8 3 -18 3 -23 0 -5 7 -9 15 -9 8 0 15 7 15 15 0 8 -6 15
-14 15 -8 0 -16 3 -19 8 -2 4 -2 1 0 -6z"/>
</g>
</svg>
